<svg width="60" height="60" viewBox="0 0 60 60" fill="none" xmlns="http://www.w3.org/2000/svg">
<path d="M52.5 18.3826V41.6175C52.5 42.1622 52.2048 42.664 51.7286 42.9287L30.7285 54.5952C30.2755 54.847 29.7246 54.847 29.2716 54.5952L8.27157 42.9287C7.7954 42.664 7.50005 42.1622 7.50005 41.6175L7.5 18.3826C7.5 17.8378 7.79535 17.3359 8.27155 17.0714L29.2716 5.4047C29.7246 5.15302 30.2755 5.15302 30.7285 5.4047L51.7286 17.0714C52.2046 17.3359 52.5 17.8378 52.5 18.3826Z" stroke="white" stroke-width="1.5" stroke-linecap="round" stroke-linejoin="round"/>
<path d="M8.82104 18.2339L29.2714 29.5953C29.7244 29.847 30.2754 29.847 30.7284 29.5953L51.2499 18.1944" stroke="white" stroke-width="1.5" stroke-linecap="round" stroke-linejoin="round"/>
<path d="M30 52.5V30" stroke="white" stroke-width="1.5" stroke-linecap="round" stroke-linejoin="round"/>
</svg>
